# xmcd
#
# Track frame offsets:
#	150
#	16873
#	33290
#	46624
#	63493
#	81951
#	97275
#	109372
#	126308
#	143658
#	157058
#	169374
#	181730
#	194811
#	216250
#	229323
#	246278
#	261585
#	262490
#
# Disc length: 3509
#
# Revision: 3
# Processed by: cddbd v1.5.1PL0 Copyright (c) Steve Scherf et al.
# Submitted via: VisiTrax 2.9.5.180 - For more info visit www.synapsa.com
# Normalized: r2:DSETVAR1
#
DISCID=2a0db313
DTITLE=Various Artist - CDXMAS 1017 B Decmber 2003
DYEAR=2003
DGENRE=Christmas
TTITLE0=Patty Loveless - Christmas time's a comin'
TTITLE1=Doug Wayne - Almost time for Christmas
TTITLE2=Kathy Mattea - Angels we have heard on high
TTITLE3=Leann Rimes - O holy night
TTITLE4=Wayne Warner - If I believed in Santa Claus
TTITLE5=Aaron Tippin - Mama's gettin' ready for Christmas
TTITLE6=Montgomey Gentry - Merry Christmas from the family
TTITLE7=Clay Cooper - Everyday it's Christmas
TTITLE8=Jimmy Wayne - Paper walls
TTITLE9=Suzy Bogguss - Mr. Santa
TTITLE10=Suzy Bogguss - Two-step 'round the Christmas tree
TTITLE11=Billy Joe Shaver and Flaco Jiminez - Feliz Navidad
TTITLE12=Six Yaer Old Savannah Conley - Sparky, the reindeer
TTITLE13=Hal Bynum - The change (a kind of a Christmas Carol)
TTITLE14=4 Sisters and a Couisin - White Christmas
TTITLE15=4 Sisters and a Couisin - If everyday  could be like Christams
TTITLE16=Willie Nelson - Please come home for Christmas
TTITLE17=Suzy Bogguss - Liner 2
TTITLE18=Suzy Bogguss - Liner 1
EXTD=
EXTT0=
EXTT1=
EXTT2=
EXTT3=
EXTT4=
EXTT5=
EXTT6=
EXTT7=
EXTT8=
EXTT9=
EXTT10=
EXTT11=
EXTT12=
EXTT13=
EXTT14=
EXTT15=
EXTT16=
EXTT17=
EXTT18=
PLAYORDER=
